<?xml version="1.0" encoding="utf-8"?>
<!-- Generator: Adobe Illustrator 12.0.0, SVG Export Plug-In  -->
<!DOCTYPE svg PUBLIC "-//W3C//DTD SVG 1.1//EN" "http://www.w3.org/Graphics/SVG/1.1/DTD/svg11.dtd" [
	<!ENTITY ns_flows "http://ns.adobe.com/Flows/1.0/">
	<!ENTITY ns_svg "http://www.w3.org/2000/svg">
	<!ENTITY ns_xlink "http://www.w3.org/1999/xlink">
]>
<svg  version="1.1" xmlns="&ns_svg;" xmlns:xlink="&ns_xlink;" xmlns:a="http://ns.adobe.com/AdobeSVGViewerExtensions/3.0/"
	 width="22" height="28" viewBox="-0.538 -0.982 22 28" enable-background="new -0.538 -0.982 22 28" xml:space="preserve">
<defs>
</defs>
<path id="Dernier_19_" fill="#A2A2A2" stroke="#000000" stroke-width="0.5" d="M16.285,6.477L16.285,6.477l4.5,5.661
	c0.403,0.516,0.426,1.252,0,1.777l-4.5,5.704l-4.423,5.57c-0.243,0.401-0.687,0.646-1.192,0.646c-0.785,0-1.413-0.634-1.413-1.414
	v-7.305l-1.981,2.503l-4.402,5.57c-0.263,0.401-0.707,0.646-1.191,0.646c-0.788,0-1.433-0.634-1.433-1.414V13.056V1.672l0,0
	c0-0.424,0.201-0.838,0.545-1.12C1.4,0.067,2.309,0.178,2.792,0.794l4.484,5.683l1.981,2.482V1.672l0,0
	c0-0.424,0.182-0.838,0.547-1.12c0.605-0.485,1.503-0.375,1.996,0.241L16.285,6.477L16.285,6.477z"/>
</svg>
