<?xml version="1.0" encoding="utf-8"?>
<!-- Generator: Adobe Illustrator 12.0.0, SVG Export Plug-In  -->
<!DOCTYPE svg PUBLIC "-//W3C//DTD SVG 1.1//EN" "http://www.w3.org/Graphics/SVG/1.1/DTD/svg11.dtd" [
	<!ENTITY ns_flows "http://ns.adobe.com/Flows/1.0/">
	<!ENTITY ns_svg "http://www.w3.org/2000/svg">
	<!ENTITY ns_xlink "http://www.w3.org/1999/xlink">
]>
<svg  version="1.1" xmlns="&ns_svg;" xmlns:xlink="&ns_xlink;" xmlns:a="http://ns.adobe.com/AdobeSVGViewerExtensions/3.0/"
	 width="24" height="27" viewBox="-0.869 -0.199 24 27" enable-background="new -0.869 -0.199 24 27" xml:space="preserve">
<defs>
</defs>
<path fill="#FFFFFF" d="M15.888,20.577c-0.703-0.07-1.352-0.366-1.831-0.845c-0.533-0.522-1.294-2.485-0.301-3.113
	c0.697-0.415,1.062-1.309,1.351-2.063c0.272-0.668,0.501-1.246,0.951-1.654v0.014l0.005-0.014c0.25-0.217,0.613-0.662,0.796-1.154
	c0.143-0.366,0.169-0.732-0.069-0.986h0.007c-0.26-0.288-0.352-0.81-0.233-1.168c0.198-0.627,0.339-1.212,0.404-1.775
	c0.061-0.529,0.075-1.021-0.011-1.507c-0.083-0.591-0.533-1.62-1.173-2.366c-0.34-0.401-0.704-0.69-1.017-0.633
	c-0.343,0.05-0.681,0-0.99-0.14c-0.269-0.135-0.508-0.331-0.691-0.591L13.021,2.51c-0.148-0.225-0.526-0.366-0.97-0.444
	c-0.589-0.104-1.253-0.091-1.745-0.076C9.133,2.004,8.111,2.243,7.316,2.792C6.627,3.249,6.09,3.946,5.745,4.925L5.717,5.003
	C5.457,5.784,5.308,6.65,5.323,7.495C5.338,8.248,5.457,8.973,5.702,9.58c0.114,0.191,0.155,0.43,0.105,0.647
	c-0.105,0.647-0.625,0.675-0.316,1.521c0.182,0.465,0.534,0.908,0.781,1.141l0.029,0.042h0.015c0.429,0.4,0.66,0.971,0.922,1.625
	c0.309,0.754,0.675,1.662,1.365,2.093c0.311,0.153,0.521,0.478,0.521,0.872c0,0.845-0.14,1.577-0.774,2.211
	c-0.465,0.479-1.126,0.774-1.844,0.845c-0.868,0.061-2.324,0.514-3.367,1.521c-0.5,0.48-0.89,1.091-1.06,1.857h18.262
	c-0.174-0.766-0.57-1.376-1.066-1.857C18.225,21.09,16.761,20.637,15.888,20.577z"/>
<path fill="#494848" d="M20.647,20.663c-1.423-1.36-3.408-1.961-4.585-2.065c-0.23-0.026-0.455-0.118-0.597-0.26
	c-0.099-0.106-0.17-0.23-0.19-0.368c0.908-0.749,1.324-1.785,1.668-2.674c0.177-0.43,0.332-0.804,0.438-0.901v-0.007l0.014-0.012
	l0.014-0.016c0.422-0.373,1.001-1.105,1.311-1.923c0.31-0.831,0.38-1.774-0.154-2.618c0.167-0.592,0.295-1.191,0.366-1.747
	c0.098-0.718,0.098-1.394-0.015-2.042c-0.134-0.874-0.762-2.352-1.633-3.366c-0.711-0.845-1.62-1.422-2.665-1.331
	c-0.503-0.712-1.337-1.048-2.215-1.203c-0.771-0.148-1.56-0.134-2.138-0.127c-1.548,0.035-2.928,0.38-4.042,1.142
	C5.182,1.842,4.365,2.871,3.887,4.271L3.843,4.356C3.506,5.355,3.336,6.447,3.352,7.523c0,0.845,0.127,1.662,0.373,2.408
	c-0.464,0.816-0.388,1.712-0.078,2.521c0.305,0.816,0.888,1.535,1.302,1.918v0.006h0.007l0.007,0.006l0.021,0.006
	c0.084,0.104,0.24,0.472,0.423,0.908c0.352,0.893,0.789,1.951,1.717,2.72c-0.028,0.11-0.083,0.232-0.176,0.322
	c-0.148,0.142-0.359,0.233-0.598,0.26c-1.184,0.104-3.17,0.705-4.591,2.065C0.739,21.653,0,23.005,0,24.809
	c0,0.546,0.451,0.992,0.986,0.992c0.032,0,0.06-0.016,0.091-0.019v0.072h20.438v-0.073c0.49-0.05,0.893-0.46,0.893-0.966
	C22.408,23.005,21.663,21.646,20.647,20.663z M2.08,23.955c0.17-0.767,0.56-1.377,1.06-1.857c1.043-1.007,2.5-1.46,3.367-1.521
	c0.717-0.07,1.379-0.366,1.844-0.845c0.634-0.634,0.774-1.366,0.774-2.211c0-0.395-0.209-0.719-0.521-0.872
	c-0.69-0.431-1.056-1.339-1.365-2.093c-0.262-0.654-0.493-1.225-0.922-1.625H6.302l-0.029-0.042
	c-0.247-0.232-0.599-0.675-0.781-1.141c-0.31-0.846,0.21-0.874,0.316-1.521c0.05-0.218,0.008-0.457-0.105-0.647
	C5.457,8.973,5.338,8.248,5.323,7.495C5.308,6.65,5.457,5.784,5.717,5.003l0.027-0.078C6.09,3.946,6.627,3.249,7.316,2.792
	c0.795-0.55,1.817-0.789,2.991-0.803c0.492-0.015,1.156-0.028,1.745,0.076c0.443,0.078,0.821,0.219,0.97,0.444l0.063,0.072
	c0.184,0.26,0.423,0.456,0.691,0.591c0.31,0.14,0.647,0.19,0.99,0.14c0.313-0.057,0.677,0.232,1.017,0.633
	c0.64,0.746,1.09,1.775,1.173,2.366c0.086,0.486,0.071,0.978,0.011,1.507c-0.065,0.563-0.206,1.148-0.404,1.775
	c-0.118,0.358-0.026,0.88,0.233,1.168h-0.007c0.238,0.253,0.212,0.62,0.069,0.986c-0.183,0.492-0.546,0.937-0.796,1.154
	l-0.005,0.014v-0.014c-0.45,0.408-0.679,0.986-0.951,1.654c-0.289,0.754-0.653,1.647-1.351,2.063
	c-0.993,0.628-0.232,2.591,0.301,3.113c0.479,0.479,1.128,0.774,1.831,0.845c0.873,0.061,2.337,0.514,3.388,1.521
	c0.496,0.481,0.893,1.092,1.066,1.857H2.08z"/>
</svg>
