<?xml version="1.0" encoding="utf-8"?>
<!-- Generator: Adobe Illustrator 12.0.0, SVG Export Plug-In  -->
<!DOCTYPE svg PUBLIC "-//W3C//DTD SVG 1.1//EN" "http://www.w3.org/Graphics/SVG/1.1/DTD/svg11.dtd" [
	<!ENTITY ns_flows "http://ns.adobe.com/Flows/1.0/">
	<!ENTITY ns_svg "http://www.w3.org/2000/svg">
	<!ENTITY ns_xlink "http://www.w3.org/1999/xlink">
]>
<svg  version="1.1" xmlns="&ns_svg;" xmlns:xlink="&ns_xlink;" xmlns:a="http://ns.adobe.com/AdobeSVGViewerExtensions/3.0/"
	 width="22" height="28" viewBox="-0.538 -0.982 22 28" enable-background="new -0.538 -0.982 22 28" xml:space="preserve">
<defs>
</defs>
<path id="Dernier_17_" fill="#A2A2A2" stroke="#000000" stroke-width="0.5" d="M5.061,6.477l4.485-5.683
	c0.492-0.616,1.39-0.727,1.995-0.241c0.365,0.281,0.547,0.696,0.547,1.12l0,0v7.286l1.981-2.482l4.484-5.683
	c0.483-0.616,1.392-0.727,1.997-0.241c0.344,0.281,0.545,0.696,0.545,1.12l0,0v11.383V24.42c0,0.78-0.646,1.414-1.433,1.414
	c-0.484,0-0.929-0.244-1.191-0.646l-4.402-5.57l-1.981-2.503v7.305c0,0.78-0.627,1.414-1.412,1.414
	c-0.505,0-0.949-0.244-1.192-0.646l-4.423-5.57l-4.5-5.704c-0.426-0.525-0.403-1.261,0-1.777L5.061,6.477L5.061,6.477L5.061,6.477z"
	/>
</svg>
